<svg width="212" height="223" viewBox="0 0 212 223" fill="none" xmlns="http://www.w3.org/2000/svg">
<rect width="212" height="223" fill="#F5F5F5"/>
<g filter="url(#filter0_d_0_1)">
<rect x="4" width="204" height="214.515" rx="10" fill="#FDFBFB"/>
<rect x="4.5" y="0.5" width="203" height="213.515" rx="9.5" stroke="black"/>
</g>
<ellipse cx="185.5" cy="26.5" rx="11.5" ry="12.5" fill="#D5BDAF"/>
<line x1="189.47" y1="38.829" x2="196.994" y2="59.5022" stroke="black"/>
<path d="M170 54.0487L182.5 49.5487L197.5 60.0486" stroke="black"/>
<g filter="url(#filter1_b_0_1)">
<line x1="169.134" y1="191.954" x2="178.634" y2="175.5" stroke="#E9E5E5" stroke-width="2"/>
</g>
<g filter="url(#filter2_b_0_1)">
<line x1="178.134" y1="192.088" x2="169.134" y2="176.5" stroke="#E9E5E5" stroke-width="2"/>
</g>
<ellipse cx="29.5" cy="184" rx="7.5" ry="8" fill="#DACFCF"/>
<path d="M39.8469 155V67.7273H58.2987V139.787H95.7134V155H39.8469ZM114.325 67.7273L135.419 134.034H136.228L157.365 67.7273H177.819L147.734 155H123.956L93.8278 67.7273H114.325Z" fill="black"/>
<defs>
<filter id="filter0_d_0_1" x="0" y="0" width="212" height="222.515" filterUnits="userSpaceOnUse" color-interpolation-filters="sRGB">
<feFlood flood-opacity="0" result="BackgroundImageFix"/>
<feColorMatrix in="SourceAlpha" type="matrix" values="0 0 0 0 0 0 0 0 0 0 0 0 0 0 0 0 0 0 127 0" result="hardAlpha"/>
<feOffset dy="4"/>
<feGaussianBlur stdDeviation="2"/>
<feComposite in2="hardAlpha" operator="out"/>
<feColorMatrix type="matrix" values="0 0 0 0 0 0 0 0 0 0 0 0 0 0 0 0 0 0 0.25 0"/>
<feBlend mode="normal" in2="BackgroundImageFix" result="effect1_dropShadow_0_1"/>
<feBlend mode="normal" in="SourceGraphic" in2="effect1_dropShadow_0_1" result="shape"/>
</filter>
<filter id="filter1_b_0_1" x="164.268" y="171" width="19.2321" height="25.4545" filterUnits="userSpaceOnUse" color-interpolation-filters="sRGB">
<feFlood flood-opacity="0" result="BackgroundImageFix"/>
<feGaussianBlur in="BackgroundImageFix" stdDeviation="2"/>
<feComposite in2="SourceAlpha" operator="in" result="effect1_backgroundBlur_0_1"/>
<feBlend mode="normal" in="SourceGraphic" in2="effect1_backgroundBlur_0_1" result="shape"/>
</filter>
<filter id="filter2_b_0_1" x="164.268" y="172" width="18.7321" height="24.5885" filterUnits="userSpaceOnUse" color-interpolation-filters="sRGB">
<feFlood flood-opacity="0" result="BackgroundImageFix"/>
<feGaussianBlur in="BackgroundImageFix" stdDeviation="2"/>
<feComposite in2="SourceAlpha" operator="in" result="effect1_backgroundBlur_0_1"/>
<feBlend mode="normal" in="SourceGraphic" in2="effect1_backgroundBlur_0_1" result="shape"/>
</filter>
</defs>
</svg>
