<svg xmlns="http://www.w3.org/2000/svg" width="212" height="223" fill="none" viewBox="0 0 212 223"><rect width="212" height="223" fill="#F5F5F5"/><g filter="url(#filter0_d_0_1)"><rect width="204" height="214.515" x="4" fill="#FDFBFB" rx="10"/><rect width="203" height="213.515" x="4.5" y=".5" stroke="#000" rx="9.5"/></g><ellipse cx="185.5" cy="26.5" fill="#D5BDAF" rx="11.5" ry="12.5"/><line x1="189.47" x2="196.994" y1="38.829" y2="59.502" stroke="#000"/><path stroke="#000" d="M170 54.0487L182.5 49.5487L197.5 60.0486"/><g filter="url(#filter1_b_0_1)"><line x1="169.134" x2="178.634" y1="191.954" y2="175.5" stroke="#E9E5E5" stroke-width="2"/></g><g filter="url(#filter2_b_0_1)"><line x1="178.134" x2="169.134" y1="192.088" y2="176.5" stroke="#E9E5E5" stroke-width="2"/></g><ellipse cx="29.5" cy="184" fill="#DACFCF" rx="7.5" ry="8"/><path fill="#000" d="M39.8469 155V67.7273H58.2987V139.787H95.7134V155H39.8469ZM114.325 67.7273L135.419 134.034H136.228L157.365 67.7273H177.819L147.734 155H123.956L93.8278 67.7273H114.325Z"/><defs><filter id="filter0_d_0_1" width="212" height="222.515" x="0" y="0" color-interpolation-filters="sRGB" filterUnits="userSpaceOnUse"><feFlood flood-opacity="0" result="BackgroundImageFix"/><feColorMatrix in="SourceAlpha" result="hardAlpha" type="matrix" values="0 0 0 0 0 0 0 0 0 0 0 0 0 0 0 0 0 0 127 0"/><feOffset dy="4"/><feGaussianBlur stdDeviation="2"/><feComposite in2="hardAlpha" operator="out"/><feColorMatrix type="matrix" values="0 0 0 0 0 0 0 0 0 0 0 0 0 0 0 0 0 0 0.25 0"/><feBlend in2="BackgroundImageFix" mode="normal" result="effect1_dropShadow_0_1"/><feBlend in="SourceGraphic" in2="effect1_dropShadow_0_1" mode="normal" result="shape"/></filter><filter id="filter1_b_0_1" width="19.232" height="25.454" x="164.268" y="171" color-interpolation-filters="sRGB" filterUnits="userSpaceOnUse"><feFlood flood-opacity="0" result="BackgroundImageFix"/><feGaussianBlur in="BackgroundImageFix" stdDeviation="2"/><feComposite in2="SourceAlpha" operator="in" result="effect1_backgroundBlur_0_1"/><feBlend in="SourceGraphic" in2="effect1_backgroundBlur_0_1" mode="normal" result="shape"/></filter><filter id="filter2_b_0_1" width="18.732" height="24.588" x="164.268" y="172" color-interpolation-filters="sRGB" filterUnits="userSpaceOnUse"><feFlood flood-opacity="0" result="BackgroundImageFix"/><feGaussianBlur in="BackgroundImageFix" stdDeviation="2"/><feComposite in2="SourceAlpha" operator="in" result="effect1_backgroundBlur_0_1"/><feBlend in="SourceGraphic" in2="effect1_backgroundBlur_0_1" mode="normal" result="shape"/></filter></defs></svg>